<?xml version="1.0" standalone="no"?>
<!DOCTYPE svg PUBLIC "-//W3C//DTD SVG 20010904//EN"
 "http://www.w3.org/TR/2001/REC-SVG-20010904/DTD/svg10.dtd">
<svg version="1.0" xmlns="http://www.w3.org/2000/svg"
 width="700.000000pt" height="700.000000pt" viewBox="0 0 700.000000 700.000000"
 preserveAspectRatio="xMidYMid meet">
<metadata>
Created by potrace 1.11, written by Peter Selinger 2001-2013
</metadata>
<g transform="translate(0.000000,700.000000) scale(0.100000,-0.100000)"
fill="#000000" stroke="none">
<path d="M3278 6995 c-1 -1 -42 -5 -89 -9 -47 -4 -95 -8 -106 -10 -11 -3 -44
-7 -74 -11 -89 -11 -238 -40 -384 -75 -72 -17 -401 -127 -448 -151 -23 -10
-44 -19 -48 -19 -12 0 -258 -120 -324 -158 -392 -226 -678 -460 -980 -807 -14
-16 -59 -73 -99 -125 -411 -536 -649 -1146 -713 -1835 -16 -163 -8 -564 12
-712 10 -67 14 -99 20 -148 4 -27 10 -66 15 -85 5 -19 11 -48 14 -65 15 -85
70 -286 111 -405 190 -552 499 -1032 915 -1422 69 -65 135 -125 147 -135 12
-10 30 -25 40 -33 52 -43 187 -143 258 -190 44 -29 99 -66 122 -81 23 -16 44
-29 47 -29 4 0 24 -11 46 -25 61 -39 305 -159 400 -198 271 -110 607 -202 851
-233 30 -3 65 -8 79 -10 176 -25 696 -25 832 1 12 3 40 7 63 10 475 66 940
234 1351 488 370 229 727 558 980 902 307 418 512 882 613 1382 16 81 33 175
36 208 4 33 9 69 11 80 19 96 26 542 11 710 -11 116 -21 196 -32 253 -1 10
-10 58 -20 107 -86 462 -283 928 -559 1327 -197 283 -497 596 -761 795 -84 63
-291 203 -299 203 -3 0 -31 16 -62 36 -145 93 -462 234 -689 307 -238 77 -387
107 -735 153 -47 6 -546 15 -552 9z"/>
</g>
</svg>
