<?xml version="1.0" encoding="iso-8859-1"?>
<!-- Generator: Adobe Illustrator 19.0.0, SVG Export Plug-In . SVG Version: 6.00 Build 0)  -->
<svg version="1.1" id="Layer_1" xmlns="http://www.w3.org/2000/svg" xmlns:xlink="http://www.w3.org/1999/xlink" x="0px" y="0px"
	 viewBox="0 0 248.357 248.357" style="enable-background:new 0 0 248.357 248.357;" xml:space="preserve">
<g>
	<path style="fill:#33AA6C;" d="M226.976,169.548c1.608-2.853,3.657-5.706,4.702-8.801c0.241-0.723-0.764-1.005-1.165-0.482
		c-1.889,2.612-3.014,5.867-4.38,8.76C225.891,169.588,226.655,170.07,226.976,169.548z M228.342,173.928
		c-0.402,0.683,0.643,1.286,1.045,0.603c2.21-3.737,4.26-7.675,4.943-12.015c0.121-0.683-0.804-0.924-1.085-0.281
		C231.638,166.172,230.312,170.15,228.342,173.928z M205.718,46.78c3.054,2.291,5.063,5.385,6.47,8.881
		c0.322,0.764,1.407,0.482,1.246-0.321c-0.764-4.139-3.577-7.434-7.153-9.524C205.638,45.414,205.155,46.338,205.718,46.78z
		 M188.559,225.647c51.478-58.631,40.146-187.145-40.587-213.185c0.482-1.487,0.723-3.054,0.442-4.541
		c53.326,10.167,93.351,57.707,95.682,113.725C245.863,164.806,223.279,203.906,188.559,225.647z M203.91,40.833
		c2.532,2.331,4.943,4.782,7.675,6.831c0.643,0.482,1.407-0.522,0.844-1.085c-2.371-2.371-5.103-4.42-7.716-6.55
		C204.151,39.587,203.387,40.31,203.91,40.833z"/>
	<path style="fill:#FFE900;" d="M143.872,12.944c-1.326,2.21-3.657,3.416-6.229,3.175c-5.305-0.442-7.314-5.787-5.465-10.087
		c4.219,0.201,8.399,0.603,12.498,1.246C144.837,9.247,145.038,11.015,143.872,12.944z"/>
	<path style="fill:#FFE900;" d="M28.7,63.216c1.648-3.054,3.898-5.385,6.711-7.354c0.362-0.281,0.04-0.884-0.362-0.643
		c-3.014,1.849-5.305,4.541-6.912,7.675C27.936,63.257,28.499,63.618,28.7,63.216z M5.513,140.574
		C-5.779,73.182,56.147,9.086,121.73,6.032c2.411-0.121,4.782-0.161,7.153-0.121c-0.321,0.763-0.442,1.567-0.563,2.371
		C32.719,22.147-6.663,137.881,46.221,212.064C25.445,194.583,10.496,170.231,5.513,140.574z"/>
	<path style="fill:#F5A833;" d="M100.351,39.025c0.522-0.603-0.161-1.648-0.884-1.165c-3.094,2.21-5.666,5.264-8.359,7.917
		c-0.563,0.522,0.241,1.286,0.804,0.804C94.725,44.168,97.98,41.878,100.351,39.025z M101.356,44.289
		c0.482-0.362-0.04-1.206-0.603-1.005c-4.34,1.447-7.635,6.148-8.841,10.408c-0.161,0.482,0.603,0.844,0.844,0.362
		c0.965-2.09,2.09-4.059,3.657-5.706C97.9,46.74,99.668,45.655,101.356,44.289z M47.989,194.583
		c1.406,4.903,4.179,9.283,7.153,13.382c0.281,0.362,0.884,0.04,0.643-0.362c-2.612-4.3-4.501-8.961-6.711-13.502
		C48.793,193.498,47.788,193.9,47.989,194.583z M55.182,211.421c0.362,0.321,0.844-0.161,0.522-0.522
		c-2.813-3.175-4.903-6.872-6.51-10.77c-0.321-0.723-1.447-0.442-1.205,0.321C49.315,204.79,51.807,208.407,55.182,211.421z
		 M101.275,239.069c-16.798-3.777-32.43-10.73-46.173-20.254c-28.853-36.448-39.141-85.635-21.62-129.558
		c16.556-41.351,52.804-67.512,94.878-78.684c0.201,2.13,1.045,4.219,2.532,5.827C67.519,63.377,53.535,176.942,101.275,239.069z"/>
	<path style="fill:#33B3E2;" d="M157.575,140.413c-0.08-0.482-0.884-0.362-0.844,0.12c0.482,4.943-0.603,9.363-1.607,14.186
		c-0.121,0.563,0.683,1.005,0.964,0.402C158.339,150.66,158.299,145.235,157.575,140.413z M146.283,15.757
		c0.281-0.362,0.522-0.804,0.764-1.246c38.417,17.883,61.042,51.679,66.387,93.713c5.264,41.713-1.929,92.025-33.997,121.803
		c-0.362,0.322-0.482,0.683-0.522,1.045c-11.493,5.787-24.071,9.805-37.373,11.574c-0.241-0.201-0.603-0.362-1.045-0.321
		c-6.872,0.402-13.663,0.241-20.414-0.362c36.087-67.391,46.977-150.013,21.981-223.03
		C143.671,18.289,145.158,17.244,146.283,15.757z M204.753,93.275c-0.241-0.643-1.246-0.362-1.045,0.281
		c1.728,5.264,2.532,10.569,3.295,15.994c0.121,0.844,1.487,0.643,1.447-0.161C208.25,103.844,206.723,98.419,204.753,93.275z
		 M204.874,88.011c-0.402-0.643-1.366-0.08-1.005,0.603c2.009,3.777,3.376,7.675,4.661,11.734c0.281,0.884,1.567,0.522,1.407-0.362
		C209.134,95.686,207.245,91.668,204.874,88.011z M189.041,190.565c0.442-1.045-1.005-1.969-1.607-0.924
		c-1.326,2.451-3.335,4.139-5.988,4.983c-1.045,0.322-0.603,1.849,0.442,1.648C185.103,195.628,187.715,193.538,189.041,190.565z"/>
	<path style="fill:#E94B59;" d="M87.974,106.336c0.322-0.563-0.522-1.326-1.005-0.723c-3.175,3.978-4.059,9.002-3.295,13.944
		c0.08,0.402,0.764,0.321,0.723-0.08C84.116,114.654,85.563,110.475,87.974,106.336z M126.632,202.781
		c0.08-0.643-0.924-0.723-1.085-0.161c-1.326,4.34-2.733,8.559-4.782,12.618c-0.322,0.683,0.603,1.246,1.005,0.603
		C124.382,211.903,126.19,207.483,126.632,202.781z M141.26,70.651c-0.241-3.938-0.723-7.836-1.206-11.774
		c-0.08-0.603-1.045-0.643-1.005,0c0.201,3.938,0.322,7.876,0.804,11.774C139.934,71.535,141.3,71.575,141.26,70.651z
		 M140.657,53.813c0.563,4.3,1.246,8.68,2.371,12.859c0.241,0.764,1.567,0.643,1.447-0.201c-0.482-4.3-1.447-8.64-2.492-12.819
		C141.782,52.929,140.577,53.049,140.657,53.813z M107.062,240.274C54.539,177.786,74.914,69.767,133.464,18.409
		c0.884,0.482,1.848,0.884,2.974,1.085c1.045,0.201,2.13,0.201,3.175,0.04c19.008,75.83,13.623,152.545-23.87,222.026
		C112.809,241.199,109.915,240.797,107.062,240.274z M119.198,211.1c-0.241,0.522,0.442,0.884,0.723,0.442
		c3.335-4.822,5.465-10.488,5.907-16.356c0.08-0.884-1.407-1.085-1.567-0.201C123.337,200.692,121.85,205.916,119.198,211.1z"/>
	<path style="fill:#1D1D1B;" d="M233.245,162.234c0.281-0.643,1.206-0.402,1.085,0.281c-0.683,4.34-2.733,8.278-4.943,12.015
		c-0.402,0.683-1.447,0.08-1.045-0.603C230.312,170.15,231.638,166.172,233.245,162.234z"/>
	<path style="fill:#1D1D1B;" d="M226.132,169.025c1.366-2.893,2.492-6.148,4.38-8.76c0.402-0.522,1.406-0.241,1.165,0.482
		c-1.045,3.094-3.094,5.947-4.702,8.801C226.655,170.07,225.891,169.588,226.132,169.025z"/>
	<path style="fill:#1D1D1B;" d="M212.188,55.661c-1.406-3.496-3.416-6.59-6.47-8.881c-0.563-0.442-0.08-1.366,0.563-0.964
		c3.576,2.09,6.389,5.385,7.153,9.524C213.594,56.144,212.509,56.425,212.188,55.661z"/>
	<path style="fill:#1D1D1B;" d="M208.531,100.348c-1.286-4.059-2.652-7.957-4.661-11.734c-0.362-0.683,0.603-1.246,1.005-0.603
		c2.371,3.657,4.26,7.675,5.063,11.975C210.098,100.87,208.812,101.232,208.531,100.348z"/>
	<path style="fill:#1D1D1B;" d="M207.004,109.55c-0.764-5.425-1.567-10.73-3.295-15.994c-0.201-0.643,0.804-0.924,1.045-0.281
		c1.969,5.144,3.496,10.569,3.697,16.114C208.491,110.193,207.124,110.394,207.004,109.55z"/>
	<path style="fill:#1D1D1B;" d="M211.585,47.664c-2.733-2.049-5.144-4.501-7.675-6.831c-0.522-0.523,0.241-1.246,0.804-0.804
		c2.612,2.13,5.345,4.179,7.716,6.55C212.991,47.142,212.228,48.147,211.585,47.664z"/>
	<path style="fill:#1D1D1B;" d="M189.041,190.565c-1.326,2.974-3.938,5.063-7.153,5.706c-1.045,0.201-1.487-1.326-0.442-1.648
		c2.652-0.844,4.661-2.532,5.988-4.983C188.036,188.596,189.483,189.52,189.041,190.565z"/>
	<path style="fill:#1D1D1B;" d="M157.575,140.413c0.723,4.822,0.764,10.247-1.487,14.708c-0.281,0.603-1.085,0.161-0.964-0.402
		c1.005-4.822,2.09-9.243,1.607-14.186C156.691,140.051,157.495,139.931,157.575,140.413z"/>
	<path style="fill:#1D1D1B;" d="M143.028,66.672c-1.125-4.179-1.808-8.56-2.371-12.859c-0.08-0.764,1.125-0.884,1.326-0.161
		c1.045,4.179,2.009,8.519,2.492,12.819C144.595,67.315,143.269,67.436,143.028,66.672z"/>
	<path style="fill:#1D1D1B;" d="M140.054,58.876c0.482,3.938,0.964,7.836,1.206,11.774c0.04,0.924-1.326,0.884-1.407,0
		c-0.482-3.898-0.603-7.836-0.804-11.774C139.01,58.233,139.974,58.273,140.054,58.876z"/>
	<path style="fill:#1D1D1B;" d="M125.547,202.62c0.161-0.563,1.165-0.482,1.085,0.161c-0.442,4.702-2.25,9.122-4.862,13.06
		c-0.402,0.643-1.326,0.08-1.005-0.603C122.815,211.18,124.221,206.96,125.547,202.62z"/>
	<path style="fill:#1D1D1B;" d="M125.829,195.186c-0.442,5.867-2.572,11.533-5.907,16.356c-0.281,0.442-0.964,0.08-0.723-0.442
		c2.652-5.184,4.139-10.408,5.063-16.114C124.422,194.101,125.909,194.302,125.829,195.186z"/>
	<path style="fill:#1D1D1B;" d="M100.753,43.284c0.563-0.201,1.085,0.643,0.603,1.005c-1.688,1.366-3.456,2.451-4.943,4.059
		c-1.567,1.648-2.692,3.617-3.657,5.706c-0.241,0.482-1.005,0.121-0.844-0.362C93.118,49.433,96.413,44.731,100.753,43.284z"/>
	<path style="fill:#1D1D1B;" d="M99.467,37.859c0.723-0.482,1.407,0.563,0.884,1.165c-2.371,2.853-5.626,5.144-8.439,7.555
		c-0.563,0.482-1.366-0.281-0.804-0.804C93.801,43.123,96.373,40.069,99.467,37.859z"/>
	<path style="fill:#1D1D1B;" d="M87.974,106.336c-2.411,4.139-3.858,8.318-3.576,13.141c0.04,0.402-0.643,0.482-0.723,0.08
		c-0.763-4.943,0.121-9.966,3.295-13.944C87.451,105.009,88.295,105.773,87.974,106.336z"/>
	<path style="fill:#1D1D1B;" d="M55.785,207.603c0.241,0.402-0.362,0.723-0.643,0.362c-2.974-4.099-5.747-8.479-7.153-13.382
		c-0.201-0.683,0.804-1.085,1.085-0.482C51.284,198.642,53.173,203.304,55.785,207.603z"/>
	<path style="fill:#1D1D1B;" d="M55.705,210.899c0.321,0.362-0.161,0.844-0.522,0.522c-3.376-3.014-5.867-6.631-7.193-10.971
		c-0.241-0.764,0.884-1.045,1.205-0.321C50.802,204.027,52.892,207.724,55.705,210.899z"/>
	<path style="fill:#1D1D1B;" d="M28.137,62.895c1.607-3.134,3.898-5.827,6.912-7.675c0.402-0.241,0.723,0.362,0.362,0.643
		c-2.813,1.969-5.063,4.3-6.711,7.354C28.499,63.618,27.936,63.257,28.137,62.895z"/>
	<path style="fill:#1D1D1B;" d="M137.643,16.119c2.572,0.241,4.903-0.965,6.229-3.175c1.165-1.929,0.964-3.697,0.804-5.666
		c-4.099-0.643-8.278-1.045-12.498-1.246C130.33,10.332,132.339,15.677,137.643,16.119z M147.971,12.462
		c80.733,26.04,92.065,154.554,40.587,213.185c34.721-21.741,57.305-60.841,55.537-104.001
		c-2.331-56.019-42.356-103.558-95.682-113.725C148.694,9.408,148.453,10.975,147.971,12.462z M121.73,6.032
		C56.147,9.086-5.779,73.182,5.513,140.574c4.983,29.657,19.932,54.01,40.708,71.49C-6.663,137.881,32.719,22.147,128.32,8.283
		c0.121-0.804,0.241-1.608,0.563-2.371C126.512,5.871,124.141,5.912,121.73,6.032z M133.464,18.409
		c-58.55,51.357-78.925,159.376-26.402,221.865c2.853,0.522,5.747,0.924,8.68,1.286c37.493-69.481,42.878-146.195,23.87-222.026
		c-1.045,0.161-2.13,0.161-3.175-0.04C135.313,19.293,134.348,18.892,133.464,18.409z M142.064,18.932
		c24.995,73.017,14.105,155.639-21.981,223.03c6.751,0.603,13.543,0.764,20.414,0.362c0.442-0.04,0.804,0.121,1.045,0.321
		c13.301-1.768,25.88-5.787,37.373-11.574c0.04-0.362,0.161-0.723,0.522-1.045c32.068-29.778,39.261-80.09,33.997-121.803
		c-5.345-42.034-27.969-75.83-66.387-93.713c-0.241,0.442-0.482,0.884-0.764,1.246C145.158,17.244,143.671,18.289,142.064,18.932z
		 M55.102,218.815c13.743,9.524,29.376,16.476,46.173,20.254C53.535,176.942,67.519,63.377,130.892,16.4
		c-1.487-1.608-2.331-3.697-2.532-5.827C86.286,21.745,50.039,47.906,33.482,89.257C15.961,133.18,26.249,182.367,55.102,218.815z
		 M202.825,28.215c38.538,32.068,55.054,87.323,40.025,135.225c-14.387,45.812-56.019,77.84-103.076,83.184
		c-0.723,0.08-1.205-0.241-1.487-0.643c-60.198,5.666-117.543-33.434-134.019-91.864C-18.88,71.896,56.187,1.893,131.374,2.295
		c0.08-0.04,0.121-0.161,0.201-0.241c0.763-0.603,1.648-0.322,2.049,0.322C157.857,2.938,182.008,10.895,202.825,28.215z"/>
</g>
<g>
</g>
<g>
</g>
<g>
</g>
<g>
</g>
<g>
</g>
<g>
</g>
<g>
</g>
<g>
</g>
<g>
</g>
<g>
</g>
<g>
</g>
<g>
</g>
<g>
</g>
<g>
</g>
<g>
</g>
</svg>
