<?xml version="1.0" encoding="iso-8859-1"?>
<!-- Generator: Adobe Illustrator 18.0.0, SVG Export Plug-In . SVG Version: 6.00 Build 0)  -->
<!DOCTYPE svg PUBLIC "-//W3C//DTD SVG 1.1//EN" "http://www.w3.org/Graphics/SVG/1.1/DTD/svg11.dtd">
<svg version="1.1" id="Capa_1" xmlns="http://www.w3.org/2000/svg" xmlns:xlink="http://www.w3.org/1999/xlink" x="0px" y="0px"
	 viewBox="0 0 297.5 297.5" style="enable-background:new 0 0 297.5 297.5;" xml:space="preserve">
<g id="XMLID_36_">
	<g>
		<path style="fill:#D35400;" d="M148.75,62.09c15.96,0,29.44,8.96,29.44,19.56s-13.48,19.55-29.44,19.55s-29.44-8.95-29.44-19.55
			S132.79,62.09,148.75,62.09z"/>
		<path style="fill:#B8C9F1;" d="M104.1,99.01c2.83,4.64,6.75,8.78,11.5,12.2c-12.78,17.47-43.27,64.86-53.95,131.65
			c-25.32-23.45-41.19-56.96-41.19-94.11C53.46,100.85,92.56,98.19,104.1,99.01z"/>
		<path style="fill:#B8C9F1;" d="M277.05,148.75c0,37.15-15.88,70.66-41.2,94.11c-10.68-66.79-41.17-114.18-53.94-131.65
			c4.75-3.42,8.67-7.56,11.5-12.2C204.95,98.19,244.04,100.86,277.05,148.75z"/>
		<path style="fill:#B8C9F1;" d="M177.78,23.77l-10.5,21c-5.73-1.85-11.98-2.88-18.53-2.88c-6.54,0-12.79,1.03-18.52,2.88l-10.51-21
			c9.33-2.17,19.05-3.32,29.03-3.32S168.45,21.6,177.78,23.77z"/>
		<path style="fill:#3498DB;" d="M100.24,29.99l12.27,24.53c-7.52,6.44-12.39,14.87-13.25,24.18c-15.61,0.16-44.34,4.59-72.57,30.54
			C38.36,73.27,65.51,44.23,100.24,29.99z"/>
		<path style="fill:#3498DB;" d="M197.26,29.99c34.74,14.24,61.88,43.28,73.55,79.25c-28.22-25.95-56.95-30.38-72.56-30.54
			c-0.86-9.31-5.74-17.74-13.25-24.18L197.26,29.99z"/>
		<path style="fill:#3498DB;" d="M163.02,119.73c9.36,12.23,45.6,63.72,54.42,137.33c-19.87,12.65-43.44,19.99-68.69,19.99
			s-48.82-7.34-68.69-19.99c8.8-73.35,45.08-125.05,54.43-137.33c4.52,1.08,9.31,1.68,14.26,1.68
			C153.71,121.41,158.5,120.81,163.02,119.73z"/>
		<path d="M148.75,0.25c81.89,0,148.5,66.62,148.5,148.5s-66.61,148.5-148.5,148.5c-81.88,0-148.5-66.62-148.5-148.5
			S66.87,0.25,148.75,0.25z M235.85,242.86c25.32-23.45,41.2-56.96,41.2-94.11c-33.01-47.89-72.1-50.56-83.64-49.74
			c-2.83,4.64-6.75,8.78-11.5,12.2C194.68,128.68,225.17,176.07,235.85,242.86z M270.81,109.24C259.14,73.27,232,44.23,197.26,29.99
			L185,54.52c7.51,6.44,12.39,14.87,13.25,24.18C213.86,78.86,242.59,83.29,270.81,109.24z M217.44,257.06
			c-8.82-73.61-45.06-125.1-54.42-137.33c-4.52,1.08-9.31,1.68-14.27,1.68c-4.95,0-9.74-0.6-14.26-1.68
			c-9.35,12.28-45.63,63.98-54.43,137.33c19.87,12.65,43.44,19.99,68.69,19.99S197.57,269.71,217.44,257.06z M167.28,44.77l10.5-21
			c-9.33-2.17-19.05-3.32-29.03-3.32s-19.7,1.15-29.03,3.32l10.51,21c5.73-1.85,11.98-2.88,18.52-2.88
			C155.3,41.89,161.55,42.92,167.28,44.77z M178.19,81.65c0-10.6-13.48-19.56-29.44-19.56s-29.44,8.96-29.44,19.56
			s13.48,19.55,29.44,19.55S178.19,92.25,178.19,81.65z M112.51,54.52l-12.27-24.53c-34.73,14.24-61.88,43.28-73.55,79.25
			C54.92,83.29,83.65,78.86,99.26,78.7C100.12,69.39,104.99,60.96,112.51,54.52z M115.6,111.21c-4.75-3.42-8.67-7.56-11.5-12.2
			c-11.54-0.82-50.64,1.84-83.64,49.74c0,37.15,15.87,70.66,41.19,94.11C72.33,176.07,102.82,128.68,115.6,111.21z"/>
	</g>
	<g>
	</g>
</g>
<g>
</g>
<g>
</g>
<g>
</g>
<g>
</g>
<g>
</g>
<g>
</g>
<g>
</g>
<g>
</g>
<g>
</g>
<g>
</g>
<g>
</g>
<g>
</g>
<g>
</g>
<g>
</g>
<g>
</g>
</svg>
