<?xml version="1.0" encoding="iso-8859-1"?>
<!-- Generator: Adobe Illustrator 17.1.0, SVG Export Plug-In . SVG Version: 6.00 Build 0)  -->
<!DOCTYPE svg PUBLIC "-//W3C//DTD SVG 1.1//EN" "http://www.w3.org/Graphics/SVG/1.1/DTD/svg11.dtd">
<svg version="1.1" id="Capa_1" xmlns="http://www.w3.org/2000/svg" xmlns:xlink="http://www.w3.org/1999/xlink" x="0px" y="0px"
	 viewBox="0 0 490 490" style="enable-background:new 0 0 490 490;" xml:space="preserve">
<g>
	<circle cx="245" cy="93.119" r="20.362"/>
	<path d="M470.74,149.631c-12.341-29.178-30.004-55.377-52.499-77.871c-22.495-22.496-48.694-40.158-77.87-52.498
		C310.155,6.481,278.067,0,245,0s-65.154,6.481-95.371,19.262c-29.176,12.34-55.375,30.002-77.87,52.498
		c-22.495,22.494-40.158,48.693-52.498,77.871C6.48,179.846,0,211.934,0,245c0,33.068,6.48,65.154,19.261,95.371
		c12.34,29.176,30.003,55.375,52.498,77.869c22.495,22.496,48.694,40.16,77.871,52.5C179.846,483.52,211.933,490,245,490
		c33.066,0,65.154-6.48,95.371-19.26c29.176-12.34,55.375-30.004,77.87-52.5c22.495-22.494,40.158-48.693,52.499-77.869
		C483.52,310.154,490,278.068,490,245C490,211.934,483.52,179.846,470.74,149.631z M19.628,219.742
		C26.169,161.4,55.353,107.469,101.2,69.773c20.071,2.682,41.012,10.701,58.579,22.352c-22.87,9.693-44.936,23.334-65.665,40.602
		C66.389,155.82,41.379,185.047,19.628,219.742z M337.715,451.951c-29.245,13.158-60.427,19.83-92.715,19.83
		c-32.287,0-63.467-6.67-92.71-19.828c-5.001-29.33-7.535-60.299-7.535-92.088c0-68.701,11.79-133,33.198-181.053
		c11.01-24.715,24.161-43.781,38.033-55.141c0.765-0.627,1.241-1.537,1.32-2.521c0.078-0.986-0.248-1.961-0.904-2.701
		c-6.197-6.988-9.61-15.986-9.61-25.334c0-13.844,7.52-26.637,19.626-33.391c0.999-0.557,1.678-1.555,1.831-2.689
		c0.152-1.133-0.239-2.273-1.057-3.076c-10.902-10.699-23.77-20.361-38.247-28.725c18.25-4.658,37.065-7.014,56.055-7.014
		c18.738,0,37.31,2.295,55.336,6.83c-14.46,8.316-27.303,17.904-38.203,28.525c-0.83,0.809-1.225,1.967-1.062,3.113
		c0.163,1.148,0.863,2.148,1.886,2.695c12.491,6.664,20.25,19.59,20.25,33.73c0,9.348-3.413,18.344-9.61,25.334
		c-0.655,0.74-0.982,1.715-0.903,2.701c0.079,0.984,0.556,1.895,1.32,2.521c13.871,11.359,27.023,30.426,38.033,55.141
		c21.408,48.053,33.198,112.352,33.198,181.053C345.245,391.662,342.711,422.633,337.715,451.951z M394.78,131.811
		c-20.584-16.98-42.472-30.393-65.14-39.93c1.703-1.109,3.441-2.188,5.207-3.223c18.653-10.926,35.821-16.547,53.893-18.934
		c45.887,37.703,75.095,91.66,81.634,150.039C448.319,184.576,422.936,155.035,394.78,131.811z"/>
</g>
<g>
</g>
<g>
</g>
<g>
</g>
<g>
</g>
<g>
</g>
<g>
</g>
<g>
</g>
<g>
</g>
<g>
</g>
<g>
</g>
<g>
</g>
<g>
</g>
<g>
</g>
<g>
</g>
<g>
</g>
</svg>
