<?xml version="1.0" encoding="iso-8859-1"?>
<!-- Generator: Adobe Illustrator 19.0.0, SVG Export Plug-In . SVG Version: 6.00 Build 0)  -->
<svg version="1.1" id="Layer_1" xmlns="http://www.w3.org/2000/svg" xmlns:xlink="http://www.w3.org/1999/xlink" x="0px" y="0px"
	 viewBox="0 0 512 512" style="enable-background:new 0 0 512 512;" xml:space="preserve">
<circle style="fill:#FFB912;" cx="256" cy="256" r="248.396"/>
<g>
	<path style="fill:#153651;" d="M437.019,74.981C388.667,26.629,324.38,0,256,0S123.332,26.629,74.981,74.981
		C26.629,123.332,0,187.62,0,256s26.629,132.667,74.98,181.019C123.332,485.371,187.62,512,256,512s132.667-26.629,181.019-74.981
		S512,324.38,512,256S485.371,123.332,437.019,74.981z M381.774,50.579c-7.419,17.978-11.188,37.025-11.188,56.725
		c0,18.497,3.349,36.551,9.954,53.66l1.446,3.644c5.209,14.486,7.846,29.694,7.846,45.267c0,73.794-60.036,133.83-133.833,133.83
		c-73.794,0-133.83-60.036-133.83-133.83c0-15.135,2.491-29.924,7.412-44.041l1.88-4.87c6.605-17.109,9.954-35.163,9.954-53.66
		c0-19.699-3.769-38.747-11.188-56.725C167.701,27.539,210.9,15.208,256,15.208S344.299,27.539,381.774,50.579z M426.266,426.266
		c-45.48,45.48-105.949,70.526-170.266,70.526s-124.786-25.046-170.266-70.526S15.208,320.318,15.208,256
		S40.254,131.214,85.734,85.734c9.845-9.845,20.395-18.728,31.531-26.612c5.93,15.325,8.941,31.49,8.941,48.18
		c0,15.389-2.578,30.432-7.668,44.768l-1.315,3.349c-6.81,17.343-10.263,35.664-10.263,54.453
		c0,82.18,66.858,149.038,149.041,149.038c82.18,0,149.038-66.858,149.038-149.038c0-18.79-3.453-37.11-10.262-54.453l-1.023-2.537
		c-5.283-14.579-7.96-29.9-7.96-45.58c0-16.691,3.012-32.855,8.941-48.18c11.136,7.883,21.686,16.766,31.531,26.612
		c45.48,45.48,70.526,105.948,70.526,170.266S471.746,380.786,426.266,426.266z"/>
	<path style="fill:#153651;" d="M293.893,369.708l3.507,14.798c19.305-4.576,37.624-12.306,54.45-22.975l-8.144-12.844
		C328.31,358.451,311.55,365.522,293.893,369.708z"/>
	<path style="fill:#153651;" d="M420.247,209.873c0,49.604-22.163,96.071-60.807,127.487l9.593,11.801
		c42.212-34.316,66.422-85.084,66.422-139.287h-15.208V209.873z"/>
</g>
<g>
</g>
<g>
</g>
<g>
</g>
<g>
</g>
<g>
</g>
<g>
</g>
<g>
</g>
<g>
</g>
<g>
</g>
<g>
</g>
<g>
</g>
<g>
</g>
<g>
</g>
<g>
</g>
<g>
</g>
</svg>
