<?xml version="1.0" encoding="iso-8859-1"?>
<!-- Generator: Adobe Illustrator 19.0.0, SVG Export Plug-In . SVG Version: 6.00 Build 0)  -->
<svg version="1.1" id="Layer_1" xmlns="http://www.w3.org/2000/svg" xmlns:xlink="http://www.w3.org/1999/xlink" x="0px" y="0px"
	 viewBox="0 0 511.999 511.999" style="enable-background:new 0 0 511.999 511.999;" xml:space="preserve">
<path style="fill:#2BA5F7;" d="M264.3,8.962v0.016c-15.783,59.301-46.923,115.364-93.438,161.879S68.276,248.521,8.975,264.304
	H8.959c-2.19-66.001,21.893-132.703,72.27-183.08S198.307,6.764,264.3,8.962z"/>
<path style="fill:#2197D8;" d="M126.961,45.813c-34.012,55.223-44.292,120.925-30.832,182.481c-0.092,0.058-0.192,0.108-0.283,0.166
	c-27.462,15.824-56.562,27.744-86.488,35.744C7.302,198.386,31.393,131.893,81.637,81.649
	C95.613,67.672,110.846,55.736,126.961,45.813z"/>
<path style="fill:#2BA5F7;" d="M165.818,284.232c4.404,14.109,12.195,27.395,23.375,38.574
	c11.179,11.179,24.465,18.971,38.574,23.375c-29.46,43.276-50.419,90.608-62.897,139.645c-30.466-12.053-59.01-30.408-83.649-55.047
	s-42.994-53.183-55.047-83.649C75.211,334.652,122.541,313.691,165.818,284.232z"/>
<path style="fill:#2197D8;" d="M162.38,349.618c13.152,13.152,27.428,24.514,42.495,34.087
	c-17.68,32.514-30.991,66.768-39.947,101.895c-0.025,0.074-0.033,0.15-0.058,0.225c-30.466-12.053-59.01-30.408-83.649-55.047
	c-24.639-24.639-42.994-53.183-55.047-83.649c35.211-8.956,69.54-22.292,102.12-40.006
	C137.866,322.19,149.229,336.466,162.38,349.618z"/>
<path style="fill:#2BA5F7;" d="M503.027,247.689c2.214,65.993-21.876,132.703-72.253,183.08s-117.079,74.46-183.072,72.262
	c15.775-59.309,46.923-115.38,93.438-161.895S443.727,263.472,503.027,247.689z"/>
<path style="fill:#2197D8;" d="M466.185,385.037c-9.923,16.115-21.86,31.348-35.835,45.325
	c-50.236,50.236-116.72,74.335-182.539,72.278c7.991-29.934,19.903-59.026,35.727-86.488c0.059-0.091,0.108-0.191,0.166-0.283
	C345.26,429.329,410.963,419.049,466.185,385.037z"/>
<g>
	<path style="fill:#F95428;" d="M264.3,8.962c28.178,0.941,56.229,6.684,82.825,17.214c-12.487,49.046-33.455,96.368-62.897,139.645
		c-32.464-10.139-69.323-2.347-95.036,23.365c-25.722,25.722-33.513,62.58-23.365,95.036l-0.008,0.008
		c-43.276,29.46-90.608,50.419-139.645,62.897C15.644,320.532,9.9,292.479,8.96,264.303h0.016
		c59.301-15.783,115.372-46.932,161.887-93.447S248.519,68.278,264.302,8.977V8.962H264.3z"/>
	<path style="fill:#F95428;" d="M485.821,164.872c10.53,26.579,16.265,54.639,17.206,82.816
		c-59.301,15.783-115.372,46.932-161.887,93.447s-77.664,102.586-93.438,161.895c-28.186-0.932-56.238-6.676-82.833-17.206
		c12.478-49.038,33.437-96.368,62.897-139.645l0.008-0.008c32.456,10.148,69.315,2.356,95.036-23.366
		c25.714-25.714,33.504-62.572,23.365-95.036C389.454,198.327,436.777,177.359,485.821,164.872z"/>
</g>
<g>
	<path style="fill:#E54728;" d="M283.537,416.152c-15.89,27.578-27.844,56.812-35.835,86.879
		c-28.176-0.941-56.238-6.676-82.833-17.206c8.956-35.211,22.292-69.54,40.006-102.12
		C229.389,399.262,256.052,410.076,283.537,416.152z"/>
	<path style="fill:#E54728;" d="M95.846,228.46c6.077,27.487,16.889,54.148,32.447,78.662
		c-32.58,17.713-66.909,31.049-102.12,40.006c-10.53-26.595-16.265-54.639-17.198-82.825
		C39.034,256.305,68.267,244.352,95.846,228.46z"/>
</g>
<path style="fill:#F7B239;" d="M346.176,227.769c10.139,32.464,2.347,69.323-23.365,95.036
	c-25.722,25.722-62.58,33.513-95.036,23.366l-0.008,0.008c-14.109-4.404-27.395-12.195-38.574-23.375
	c-11.179-11.179-18.971-24.465-23.375-38.574l0.008-0.008c-10.148-32.456-2.356-69.315,23.365-95.036
	c25.714-25.714,62.572-33.504,95.036-23.365c14.118,4.396,27.403,12.186,38.582,23.365
	C333.99,200.366,341.782,213.652,346.176,227.769z M281.807,242.845l0.491-38.449l-30.824,22.999l-36.435-12.362l12.362,36.435
	L204.394,282.3l38.457-0.499l22.209,31.415l11.421-36.743l36.735-11.412L281.807,242.845z"/>
<polygon style="fill:#FFFFFF;" points="282.298,204.396 281.807,242.845 313.213,265.062 276.479,276.474 265.059,313.217 
	242.849,281.802 204.392,282.301 227.4,251.469 215.039,215.034 251.474,227.395 "/>
<path style="fill:#2BA5F7;" d="M347.125,26.176c30.466,12.053,59.01,30.408,83.649,55.047s42.994,53.183,55.047,83.649
	c-49.046,12.487-96.368,33.455-139.645,62.897c-4.396-14.118-12.186-27.403-23.365-38.582
	c-11.179-11.179-24.465-18.971-38.582-23.365C313.671,122.545,334.64,75.222,347.125,26.176z"/>
<g>
	<path style="fill:#333333;" d="M256,0C187.62,0,123.332,26.628,74.98,74.981C26.628,123.332,0,187.62,0,256
		s26.628,132.668,74.98,181.019S187.618,512,255.999,511.999c68.38,0,132.668-26.628,181.019-74.98
		c48.353-48.353,74.981-112.64,74.981-181.02c0-68.379-26.628-132.666-74.981-181.019S324.38,0,256,0z M334.895,334.89
		c-44.277,44.277-76.594,99.076-93.776,158.863c-22.277-1.381-44.394-5.865-65.642-13.457
		c12.097-44.159,30.952-85.784,56.121-123.936c33.858,8.173,71.073-0.929,97.453-27.309c26.38-26.38,35.481-63.593,27.309-97.45
		c38.173-25.169,79.798-44.023,123.937-56.121c7.588,21.243,12.072,43.353,13.454,65.625
		C433.964,258.298,379.169,290.618,334.895,334.89z M177.107,177.102c44.269-44.269,76.587-99.064,93.779-158.855
		c22.274,1.382,44.385,5.865,65.63,13.454c-12.098,44.139-30.952,85.764-56.121,123.937c-33.856-8.171-71.069,0.931-97.448,27.31
		c-26.38,26.38-35.481,63.593-27.309,97.45c-38.151,25.169-79.777,44.024-123.936,56.122c-7.589-21.246-12.073-43.358-13.455-65.632
		C78.036,253.696,132.834,221.376,177.107,177.102z M195.434,195.435c33.396-33.396,87.735-33.396,121.131,0
		s33.396,87.735,0,121.131s-87.735,33.396-121.131,0S162.038,228.831,195.434,195.435z M350.525,214.314
		c-5.007-11.388-12.162-22.053-21.473-31.365c-9.313-9.313-19.978-16.468-31.368-21.475c24.566-38.101,43.145-79.44,55.338-123.168
		c25.954,11.532,50.26,27.908,71.512,49.16s37.627,45.557,49.16,71.509C429.965,171.169,388.626,189.748,350.525,214.314z
		 M252.614,17.81c-16.669,55.192-46.936,105.75-87.993,146.806c-41.061,41.061-91.62,71.33-146.812,88.001
		c0.843-59.901,24.05-119.543,69.658-165.149C133.073,41.861,192.713,18.654,252.614,17.81z M38.307,353.024
		c43.746-12.191,85.085-30.77,123.166-55.337c5.007,11.388,12.162,22.053,21.473,31.364s19.975,16.466,31.362,21.472
		c-24.567,38.083-43.146,79.421-55.336,123.168c-25.953-11.532-50.256-27.908-71.507-49.159
		C66.215,403.283,49.839,378.978,38.307,353.024z M259.39,494.19c16.661-55.19,46.926-105.748,87.991-146.813
		c41.061-41.061,91.617-71.329,146.808-88c-0.842,59.903-24.049,119.549-69.658,165.156
		C378.929,470.137,319.289,493.346,259.39,494.19z"/>
	<path style="fill:#333333;" d="M257.853,318.311c1.94,2.744,5.27,4.147,8.59,3.622c3.317-0.525,6.052-2.89,7.049-6.1l10.039-32.3
		l32.301-10.04c1.394-0.433,2.629-1.194,3.621-2.187c1.295-1.295,2.18-2.984,2.478-4.863c0.526-3.319-0.878-6.65-3.622-8.59
		l-27.617-19.53l0.433-33.822c0.042-3.36-1.826-6.453-4.821-7.979c-2.994-1.526-6.596-1.218-9.288,0.791l-27.109,20.23
		l-32.034-10.862c-3.182-1.08-6.702-0.259-9.079,2.118c-2.377,2.377-3.197,5.895-2.119,9.079l10.863,32.033l-20.23,27.109
		c-2.011,2.693-2.317,6.293-0.791,9.288c1.526,2.995,4.619,4.863,7.979,4.821l33.822-0.432L257.853,318.311z M234.47,256.75
		c1.738-2.329,2.219-5.363,1.286-8.116l-6.609-19.486l19.486,6.608c2.752,0.932,5.787,0.452,8.116-1.286l16.491-12.307
		l-0.264,20.576c-0.036,2.905,1.358,5.644,3.732,7.321l16.8,11.88l-19.651,6.109c-1.387,0.431-2.624,1.19-3.622,2.188
		c-0.998,0.998-1.756,2.234-2.188,3.622l-6.107,19.65l-11.882-16.8c-1.678-2.372-4.416-3.767-7.321-3.731l-20.575,0.263
		L234.47,256.75z"/>
</g>
<g>
</g>
<g>
</g>
<g>
</g>
<g>
</g>
<g>
</g>
<g>
</g>
<g>
</g>
<g>
</g>
<g>
</g>
<g>
</g>
<g>
</g>
<g>
</g>
<g>
</g>
<g>
</g>
<g>
</g>
</svg>
