<?xml version="1.0" encoding="iso-8859-1"?>
<!-- Generator: Adobe Illustrator 19.0.0, SVG Export Plug-In . SVG Version: 6.00 Build 0)  -->
<svg version="1.1" id="Layer_1" xmlns="http://www.w3.org/2000/svg" xmlns:xlink="http://www.w3.org/1999/xlink" x="0px" y="0px"
	 viewBox="0 0 490 490" style="enable-background:new 0 0 490 490;" xml:space="preserve">
<g>
	<g id="XMLID_56_">
		<g>
			<path style="fill:#FFD248;" d="M245,10c129.8,0,235,105.2,235,235S374.8,480,245,480S10,374.8,10,245S115.2,10,245,10z"/>
		</g>
		<g>
			<g>
				<path style="fill:#231F20;" d="M245,490c-65.448,0-126.975-25.482-173.246-71.754C25.483,371.975,0,310.448,0,245
					S25.483,118.025,71.754,71.754C118.025,25.482,179.552,0,245,0s126.975,25.482,173.246,71.754
					C464.517,118.025,490,179.552,490,245s-25.483,126.975-71.754,173.246C371.975,464.518,310.448,490,245,490z M245,20
					c-60.106,0-116.61,23.402-159.104,65.896S20,184.895,20,245s23.402,116.61,65.896,159.104S184.894,470,245,470
					s116.61-23.402,159.104-65.896S470,305.105,470,245s-23.402-116.61-65.896-159.104S305.106,20,245,20z"/>
			</g>
		</g>
	</g>
	<g id="XMLID_57_">
		<g>
			<path style="fill:#FFDA48;" d="M245,55c104.9,0,190,85.1,190,190s-85.1,190-190,190S55,349.9,55,245S140.1,55,245,55z"/>
			<g>
				<path style="fill:#FEC647;" d="M245,85c88.337,0,160,71.663,160,160s-71.663,160-160,160S85,333.337,85,245S156.663,85,245,85z"
					/>
			</g>
		</g>
		<g>
			<g>
				<path style="fill:#231F20;" d="M245,445c-110.28,0-200-89.72-200-200S134.72,45,245,45s200,89.72,200,200S355.28,445,245,445z
					 M245,65c-99.252,0-180,80.748-180,180s80.748,180,180,180s180-80.748,180-180S344.252,65,245,65z"/>
			</g>
		</g>
	</g>
	<path style="fill:#231F20;" d="M330,195v-10c0-33.084-26.916-60-60-60h-15V95h-20v30h-15c-33.084,0-60,26.916-60,60v10
		c0,33.084,26.916,60,60,60h50c22.056,0,40,17.944,40,40v10c0,22.056-17.944,40-40,40h-50c-22.056,0-40-17.944-40-40v-10h-20v10
		c0,33.084,26.916,60,60,60h15v30h20v-30h15c33.084,0,60-26.916,60-60v-10c0-33.084-26.916-60-60-60h-50c-22.056,0-40-17.944-40-40
		v-10c0-22.056,17.944-40,40-40h50c22.056,0,40,17.944,40,40v10H330z"/>
</g>
<g>
</g>
<g>
</g>
<g>
</g>
<g>
</g>
<g>
</g>
<g>
</g>
<g>
</g>
<g>
</g>
<g>
</g>
<g>
</g>
<g>
</g>
<g>
</g>
<g>
</g>
<g>
</g>
<g>
</g>
</svg>
